<svg width="24" height="24" viewBox="0 0 24 24" fill="none" xmlns="http://www.w3.org/2000/svg">
<mask id="path-1-inside-1" fill="white">
<path fill-rule="evenodd" clip-rule="evenodd" d="M12 3C10.6193 3 9.5 4.11929 9.5 5.5V9.5H5.5C4.11929 9.5 3 10.6193 3 12C3 13.3807 4.11929 14.5 5.5 14.5H9.5V18.5C9.5 19.8807 10.6193 21 12 21C13.3807 21 14.5 19.8807 14.5 18.5V14.5H18.5C19.8807 14.5 21 13.3807 21 12C21 10.6193 19.8807 9.5 18.5 9.5H14.5V5.5C14.5 4.11929 13.3807 3 12 3Z"/>
</mask>
<path d="M9.5 9.5V10.5H10.5V9.5H9.5ZM9.5 14.5H10.5V13.5H9.5V14.5ZM14.5 14.5V13.5H13.5V14.5H14.5ZM14.5 9.5H13.5V10.5H14.5V9.5ZM10.5 5.5C10.5 4.67157 11.1716 4 12 4V2C10.067 2 8.5 3.567 8.5 5.5H10.5ZM10.5 9.5V5.5H8.5V9.5H10.5ZM5.5 10.5H9.5V8.5H5.5V10.5ZM4 12C4 11.1716 4.67157 10.5 5.5 10.5V8.5C3.567 8.5 2 10.067 2 12H4ZM5.5 13.5C4.67157 13.5 4 12.8284 4 12H2C2 13.933 3.567 15.5 5.5 15.5V13.5ZM9.5 13.5H5.5V15.5H9.5V13.5ZM10.5 18.5V14.5H8.5V18.5H10.5ZM12 20C11.1716 20 10.5 19.3284 10.5 18.5H8.5C8.5 20.433 10.067 22 12 22V20ZM13.5 18.5C13.5 19.3284 12.8284 20 12 20V22C13.933 22 15.5 20.433 15.5 18.5H13.5ZM13.5 14.5V18.5H15.5V14.5H13.5ZM18.5 13.5H14.5V15.5H18.5V13.5ZM20 12C20 12.8284 19.3284 13.5 18.5 13.5V15.5C20.433 15.5 22 13.933 22 12H20ZM18.5 10.5C19.3284 10.5 20 11.1716 20 12H22C22 10.067 20.433 8.5 18.5 8.5V10.5ZM14.5 10.5H18.5V8.5H14.5V10.5ZM13.5 5.5V9.5H15.5V5.5H13.5ZM12 4C12.8284 4 13.5 4.67157 13.5 5.5H15.5C15.5 3.567 13.933 2 12 2V4Z" fill="url(#paint0_linear)" mask="url(#path-1-inside-1)"/>
<defs>
<linearGradient id="paint0_linear" x1="3" y1="12" x2="21" y2="12" gradientUnits="userSpaceOnUse">
<stop stop-color="#03A868"/>
<stop offset="1" stop-color="#00783D"/>
</linearGradient>
</defs>
</svg>
