<svg width="24" height="24" viewBox="0 0 24 24" fill="none" xmlns="http://www.w3.org/2000/svg">
<path fill-rule="evenodd" clip-rule="evenodd" d="M9.18231 5H17.9055L17.58 3.78513C17.437 3.25167 16.8887 2.93509 16.3552 3.07803L9.18231 5ZM18.9407 5L18.5459 3.52632C18.26 2.45938 17.1633 1.82622 16.0964 2.1121L5.3186 5H4C2.89543 5 2 5.89543 2 7V18C2 19.1046 2.89543 20 4 20H19C20.1046 20 21 19.1046 21 18V15.2324C21.5978 14.8866 22 14.2403 22 13.5V11.5C22 10.7597 21.5978 10.1134 21 9.76756V7C21 5.89543 20.1046 5 19 5H18.9407ZM13 13.5C13 14.6046 13.8954 15.5 15 15.5H20V18C20 18.5523 19.5523 19 19 19H4C3.44772 19 3 18.5523 3 18V7C3 6.44772 3.44772 6 4 6H19C19.5523 6 20 6.44772 20 7V9.5H15C13.8954 9.5 13 10.3954 13 11.5V13.5ZM20 10.5H15C14.4477 10.5 14 10.9477 14 11.5V13.5C14 14.0523 14.4477 14.5 15 14.5H20C20.5523 14.5 21 14.0523 21 13.5V11.5C21 10.9477 20.5523 10.5 20 10.5ZM16.5 11.5C15.9477 11.5 15.5 11.9477 15.5 12.5C15.5 13.0523 15.9477 13.5 16.5 13.5C17.0523 13.5 17.5 13.0523 17.5 12.5C17.5 11.9477 17.0523 11.5 16.5 11.5Z" fill="url(#paint0_linear)"/>
<defs>
<linearGradient id="paint0_linear" x1="2" y1="11.0217" x2="22" y2="11.0217" gradientUnits="userSpaceOnUse">
<stop stop-color="#03A868"/>
<stop offset="1" stop-color="#00783D"/>
</linearGradient>
</defs>
</svg>
