<svg width="24" height="24" viewBox="0 0 24 24" fill="none" xmlns="http://www.w3.org/2000/svg">
<mask id="path-1-inside-1" fill="white">
<path fill-rule="evenodd" clip-rule="evenodd" d="M20 6H4C3.44772 6 3 6.44772 3 7V8H21V7C21 6.44772 20.5523 6 20 6ZM3 11V9H21V11H3ZM3 12V17C3 17.5523 3.44772 18 4 18H20C20.5523 18 21 17.5523 21 17V12H3ZM4 5C2.89543 5 2 5.89543 2 7V17C2 18.1046 2.89543 19 4 19H20C21.1046 19 22 18.1046 22 17V7C22 5.89543 21.1046 5 20 5H4Z"/>
</mask>
<path fill-rule="evenodd" clip-rule="evenodd" d="M20 6H4C3.44772 6 3 6.44772 3 7V8H21V7C21 6.44772 20.5523 6 20 6ZM3 11V9H21V11H3ZM3 12V17C3 17.5523 3.44772 18 4 18H20C20.5523 18 21 17.5523 21 17V12H3ZM4 5C2.89543 5 2 5.89543 2 7V17C2 18.1046 2.89543 19 4 19H20C21.1046 19 22 18.1046 22 17V7C22 5.89543 21.1046 5 20 5H4Z" fill="white"/>
<path d="M3 8H2V9H3V8ZM21 8V9H22V8H21ZM3 9V8H2V9H3ZM3 11H2V12H3V11ZM21 9H22V8H21V9ZM21 11V12H22V11H21ZM3 12V11H2V12H3ZM21 12H22V11H21V12ZM4 7H20V5H4V7ZM4 7V7V5C2.89543 5 2 5.89543 2 7H4ZM4 8V7H2V8H4ZM21 7H3V9H21V7ZM20 7V8H22V7H20ZM20 7H22C22 5.89543 21.1046 5 20 5V7ZM2 9V11H4V9H2ZM21 8H3V10H21V8ZM22 11V9H20V11H22ZM3 12H21V10H3V12ZM2 12V17H4V12H2ZM2 17C2 18.1046 2.89543 19 4 19V17H4H2ZM4 19H20V17H4V19ZM20 19C21.1046 19 22 18.1046 22 17H20V19ZM22 17V12H20V17H22ZM21 11H3V13H21V11ZM3 7C3 6.44772 3.44772 6 4 6V4C2.34315 4 1 5.34315 1 7H3ZM3 17V7H1V17H3ZM4 18C3.44772 18 3 17.5523 3 17H1C1 18.6569 2.34315 20 4 20V18ZM20 18H4V20H20V18ZM21 17C21 17.5523 20.5523 18 20 18V20C21.6569 20 23 18.6569 23 17H21ZM21 7V17H23V7H21ZM20 6C20.5523 6 21 6.44772 21 7H23C23 5.34315 21.6569 4 20 4V6ZM4 6H20V4H4V6Z" fill="#A8A8A8" mask="url(#path-1-inside-1)"/>
</svg>
